<mxfile host="app.diagrams.net" modified="2021-01-25T07:17:51.019Z" agent="5.0 (Windows NT 10.0; Win64; x64) AppleWebKit/537.36 (KHTML, like Gecko) Chrome/87.0.4280.141 Safari/537.36" etag="gxrOadOPAZFvBScqkft4" version="14.2.7" type="github">
  <diagram id="6a731a19-8d31-9384-78a2-239565b7b9f0" name="Page-1">
    <mxGraphModel dx="2062" dy="762" grid="1" gridSize="10" guides="1" tooltips="1" connect="1" arrows="1" fold="1" page="1" pageScale="1" pageWidth="1169" pageHeight="827" background="#ffffff" math="0" shadow="0">
      <root>
        <mxCell id="0" />
        <mxCell id="1" parent="0" />
        <mxCell id="AJ3HKmLrgSViQPSU0R3i-60" style="edgeStyle=orthogonalEdgeStyle;rounded=0;orthogonalLoop=1;jettySize=auto;html=1;exitX=0.5;exitY=1;exitDx=0;exitDy=0;exitPerimeter=0;entryX=0.5;entryY=0;entryDx=0;entryDy=0;" edge="1" parent="1" source="2" target="AJ3HKmLrgSViQPSU0R3i-58">
          <mxGeometry relative="1" as="geometry">
            <Array as="points">
              <mxPoint x="405" y="90" />
            </Array>
          </mxGeometry>
        </mxCell>
        <mxCell id="2" value="命令行分析启动命令" style="shape=mxgraph.flowchart.terminator;strokeWidth=2;gradientColor=none;gradientDirection=north;fontStyle=0;html=1;" parent="1" vertex="1">
          <mxGeometry x="345" y="30" width="120" height="40" as="geometry" />
        </mxCell>
        <mxCell id="AJ3HKmLrgSViQPSU0R3i-57" value="WebServer" style="shape=parallelogram;perimeter=parallelogramPerimeter;whiteSpace=wrap;html=1;fixedSize=1;shadow=1;" vertex="1" parent="1">
          <mxGeometry x="332" y="204" width="120" height="60" as="geometry" />
        </mxCell>
        <mxCell id="AJ3HKmLrgSViQPSU0R3i-80" style="edgeStyle=orthogonalEdgeStyle;rounded=0;orthogonalLoop=1;jettySize=auto;html=1;exitX=0.5;exitY=1;exitDx=0;exitDy=0;" edge="1" parent="1" source="AJ3HKmLrgSViQPSU0R3i-58">
          <mxGeometry relative="1" as="geometry">
            <mxPoint x="405" y="200" as="targetPoint" />
          </mxGeometry>
        </mxCell>
        <mxCell id="AJ3HKmLrgSViQPSU0R3i-58" value="分析配置文件，&lt;br&gt;初始化日志&lt;br&gt;初始数据库" style="rounded=1;whiteSpace=wrap;html=1;" vertex="1" parent="1">
          <mxGeometry x="345" y="106" width="120" height="60" as="geometry" />
        </mxCell>
        <mxCell id="AJ3HKmLrgSViQPSU0R3i-85" style="edgeStyle=orthogonalEdgeStyle;rounded=0;orthogonalLoop=1;jettySize=auto;html=1;exitX=0.5;exitY=1;exitDx=0;exitDy=0;entryX=0.1;entryY=0.5;entryDx=0;entryDy=0;entryPerimeter=0;" edge="1" parent="1" source="AJ3HKmLrgSViQPSU0R3i-61" target="AJ3HKmLrgSViQPSU0R3i-84">
          <mxGeometry relative="1" as="geometry" />
        </mxCell>
        <mxCell id="AJ3HKmLrgSViQPSU0R3i-61" value="Sync" style="shape=parallelogram;perimeter=parallelogramPerimeter;whiteSpace=wrap;html=1;fixedSize=1;shadow=1;" vertex="1" parent="1">
          <mxGeometry x="432" y="204" width="120" height="60" as="geometry" />
        </mxCell>
        <mxCell id="AJ3HKmLrgSViQPSU0R3i-62" value="DataRecorder" style="shape=parallelogram;perimeter=parallelogramPerimeter;whiteSpace=wrap;html=1;fixedSize=1;shadow=1;" vertex="1" parent="1">
          <mxGeometry x="232" y="204" width="120" height="60" as="geometry" />
        </mxCell>
        <mxCell id="AJ3HKmLrgSViQPSU0R3i-63" value="BackUp" style="shape=parallelogram;perimeter=parallelogramPerimeter;whiteSpace=wrap;html=1;fixedSize=1;shadow=1;" vertex="1" parent="1">
          <mxGeometry x="532" y="204" width="120" height="60" as="geometry" />
        </mxCell>
        <mxCell id="AJ3HKmLrgSViQPSU0R3i-83" value="用户表更新" style="ellipse;whiteSpace=wrap;html=1;shadow=1;" vertex="1" parent="1">
          <mxGeometry x="182" y="350" width="88" height="60" as="geometry" />
        </mxCell>
        <mxCell id="AJ3HKmLrgSViQPSU0R3i-84" value="" style="shape=curlyBracket;whiteSpace=wrap;html=1;rounded=1;shadow=1;rotation=90;" vertex="1" parent="1">
          <mxGeometry x="533.25" y="-13.75" width="20" height="707.5" as="geometry" />
        </mxCell>
        <mxCell id="AJ3HKmLrgSViQPSU0R3i-87" value="医嘱更新" style="ellipse;whiteSpace=wrap;html=1;shadow=1;" vertex="1" parent="1">
          <mxGeometry x="310" y="350" width="88" height="60" as="geometry" />
        </mxCell>
        <mxCell id="AJ3HKmLrgSViQPSU0R3i-88" value="门诊患者更新" style="ellipse;whiteSpace=wrap;html=1;shadow=1;" vertex="1" parent="1">
          <mxGeometry x="420" y="350" width="88" height="60" as="geometry" />
        </mxCell>
        <mxCell id="AJ3HKmLrgSViQPSU0R3i-89" value="住院患者更新" style="ellipse;whiteSpace=wrap;html=1;shadow=1;" vertex="1" parent="1">
          <mxGeometry x="538" y="350" width="88" height="60" as="geometry" />
        </mxCell>
        <mxCell id="AJ3HKmLrgSViQPSU0R3i-90" value="项目更新" style="ellipse;whiteSpace=wrap;html=1;shadow=1;" vertex="1" parent="1">
          <mxGeometry x="652" y="350" width="88" height="60" as="geometry" />
        </mxCell>
        <mxCell id="AJ3HKmLrgSViQPSU0R3i-92" value="医嘱停止的更新" style="ellipse;whiteSpace=wrap;html=1;shadow=1;" vertex="1" parent="1">
          <mxGeometry x="798" y="350" width="84" height="60" as="geometry" />
        </mxCell>
        <mxCell id="AJ3HKmLrgSViQPSU0R3i-104" style="edgeStyle=orthogonalEdgeStyle;rounded=0;orthogonalLoop=1;jettySize=auto;html=1;entryX=0.5;entryY=0;entryDx=0;entryDy=0;fontSize=16;" edge="1" parent="1" source="AJ3HKmLrgSViQPSU0R3i-94" target="AJ3HKmLrgSViQPSU0R3i-103">
          <mxGeometry relative="1" as="geometry" />
        </mxCell>
        <mxCell id="AJ3HKmLrgSViQPSU0R3i-94" value="User Reader" style="rounded=1;whiteSpace=wrap;html=1;shadow=1;" vertex="1" parent="1">
          <mxGeometry x="180" y="440" width="84" height="40" as="geometry" />
        </mxCell>
        <mxCell id="AJ3HKmLrgSViQPSU0R3i-122" style="edgeStyle=orthogonalEdgeStyle;rounded=0;orthogonalLoop=1;jettySize=auto;html=1;exitX=0.5;exitY=1;exitDx=0;exitDy=0;entryX=0.5;entryY=0;entryDx=0;entryDy=0;fontSize=14;" edge="1" parent="1" source="AJ3HKmLrgSViQPSU0R3i-95" target="AJ3HKmLrgSViQPSU0R3i-112">
          <mxGeometry relative="1" as="geometry" />
        </mxCell>
        <mxCell id="AJ3HKmLrgSViQPSU0R3i-95" value="Advice Reader" style="rounded=1;whiteSpace=wrap;html=1;shadow=1;" vertex="1" parent="1">
          <mxGeometry x="312" y="440" width="84" height="40" as="geometry" />
        </mxCell>
        <mxCell id="AJ3HKmLrgSViQPSU0R3i-96" value="OutPatient&amp;nbsp;&lt;br&gt;Reader" style="rounded=1;whiteSpace=wrap;html=1;shadow=1;" vertex="1" parent="1">
          <mxGeometry x="422" y="440" width="84" height="40" as="geometry" />
        </mxCell>
        <mxCell id="AJ3HKmLrgSViQPSU0R3i-97" value="InPatient&lt;br&gt;Reader" style="rounded=1;whiteSpace=wrap;html=1;shadow=1;" vertex="1" parent="1">
          <mxGeometry x="542" y="440" width="84" height="40" as="geometry" />
        </mxCell>
        <mxCell id="AJ3HKmLrgSViQPSU0R3i-98" value="Treatment&lt;br&gt;Reader" style="rounded=1;whiteSpace=wrap;html=1;shadow=1;" vertex="1" parent="1">
          <mxGeometry x="660" y="440" width="84" height="40" as="geometry" />
        </mxCell>
        <mxCell id="AJ3HKmLrgSViQPSU0R3i-99" value="找出需要&lt;br&gt;停止的医嘱" style="rounded=1;whiteSpace=wrap;html=1;shadow=1;" vertex="1" parent="1">
          <mxGeometry x="808" y="550" width="84" height="40" as="geometry" />
        </mxCell>
        <mxCell id="AJ3HKmLrgSViQPSU0R3i-100" value="" style="line;strokeWidth=2;html=1;shadow=1;" vertex="1" parent="1">
          <mxGeometry x="180" y="490" width="740" height="10" as="geometry" />
        </mxCell>
        <mxCell id="AJ3HKmLrgSViQPSU0R3i-101" value="" style="line;strokeWidth=2;html=1;shadow=1;" vertex="1" parent="1">
          <mxGeometry x="180" y="414" width="740" height="10" as="geometry" />
        </mxCell>
        <mxCell id="AJ3HKmLrgSViQPSU0R3i-102" value="&lt;span style=&quot;font-weight: normal ; font-size: 16px&quot;&gt;数据读取层，实现Reader接口，例如：&lt;br&gt;开州实现了ViewReader，大竹实现了WsReader&lt;/span&gt;" style="text;strokeColor=none;fillColor=none;html=1;fontSize=16;fontStyle=1;verticalAlign=middle;align=left;shadow=0;" vertex="1" parent="1">
          <mxGeometry x="870" y="430" width="320" height="40" as="geometry" />
        </mxCell>
        <mxCell id="AJ3HKmLrgSViQPSU0R3i-106" style="edgeStyle=orthogonalEdgeStyle;rounded=0;orthogonalLoop=1;jettySize=auto;html=1;exitX=0;exitY=0.5;exitDx=0;exitDy=0;entryX=0;entryY=0.5;entryDx=0;entryDy=0;fontSize=14;" edge="1" parent="1" source="AJ3HKmLrgSViQPSU0R3i-103" target="AJ3HKmLrgSViQPSU0R3i-94">
          <mxGeometry relative="1" as="geometry" />
        </mxCell>
        <mxCell id="AJ3HKmLrgSViQPSU0R3i-107" value="无不一致" style="edgeLabel;html=1;align=center;verticalAlign=middle;resizable=0;points=[];fontSize=14;" vertex="1" connectable="0" parent="AJ3HKmLrgSViQPSU0R3i-106">
          <mxGeometry x="-0.1579" y="1" relative="1" as="geometry">
            <mxPoint as="offset" />
          </mxGeometry>
        </mxCell>
        <mxCell id="AJ3HKmLrgSViQPSU0R3i-111" value="存在不一致" style="edgeStyle=orthogonalEdgeStyle;rounded=0;orthogonalLoop=1;jettySize=auto;html=1;exitX=0.5;exitY=1;exitDx=0;exitDy=0;entryX=0.5;entryY=0;entryDx=0;entryDy=0;fontSize=14;" edge="1" parent="1" source="AJ3HKmLrgSViQPSU0R3i-103" target="AJ3HKmLrgSViQPSU0R3i-109">
          <mxGeometry relative="1" as="geometry" />
        </mxCell>
        <mxCell id="AJ3HKmLrgSViQPSU0R3i-103" value="与本地&lt;br&gt;数据比对" style="rhombus;whiteSpace=wrap;html=1;shadow=0;fontSize=14;align=center;" vertex="1" parent="1">
          <mxGeometry x="182" y="520" width="80" height="80" as="geometry" />
        </mxCell>
        <mxCell id="AJ3HKmLrgSViQPSU0R3i-109" value="插入数据库" style="rounded=1;whiteSpace=wrap;html=1;shadow=0;fontSize=14;align=center;" vertex="1" parent="1">
          <mxGeometry x="181" y="670" width="84" height="30" as="geometry" />
        </mxCell>
        <mxCell id="AJ3HKmLrgSViQPSU0R3i-123" value="不存在新增" style="edgeStyle=orthogonalEdgeStyle;rounded=0;orthogonalLoop=1;jettySize=auto;html=1;exitX=0;exitY=0.5;exitDx=0;exitDy=0;entryX=0;entryY=0.5;entryDx=0;entryDy=0;fontSize=14;" edge="1" parent="1" source="AJ3HKmLrgSViQPSU0R3i-112" target="AJ3HKmLrgSViQPSU0R3i-95">
          <mxGeometry relative="1" as="geometry" />
        </mxCell>
        <mxCell id="AJ3HKmLrgSViQPSU0R3i-125" value="有新增" style="edgeStyle=orthogonalEdgeStyle;rounded=0;orthogonalLoop=1;jettySize=auto;html=1;exitX=0.5;exitY=1;exitDx=0;exitDy=0;fontSize=14;" edge="1" parent="1" source="AJ3HKmLrgSViQPSU0R3i-112">
          <mxGeometry relative="1" as="geometry">
            <mxPoint x="360" y="640" as="targetPoint" />
          </mxGeometry>
        </mxCell>
        <mxCell id="AJ3HKmLrgSViQPSU0R3i-112" value="与本地&lt;br&gt;数据比对" style="rhombus;whiteSpace=wrap;html=1;shadow=0;fontSize=14;align=center;" vertex="1" parent="1">
          <mxGeometry x="318" y="510" width="80" height="80" as="geometry" />
        </mxCell>
        <mxCell id="AJ3HKmLrgSViQPSU0R3i-113" value="与本地&lt;br&gt;数据比对" style="rhombus;whiteSpace=wrap;html=1;shadow=0;fontSize=14;align=center;" vertex="1" parent="1">
          <mxGeometry x="458" y="530" width="80" height="80" as="geometry" />
        </mxCell>
        <mxCell id="AJ3HKmLrgSViQPSU0R3i-114" value="与本地&lt;br&gt;数据比对" style="rhombus;whiteSpace=wrap;html=1;shadow=0;fontSize=14;align=center;" vertex="1" parent="1">
          <mxGeometry x="546" y="530" width="80" height="80" as="geometry" />
        </mxCell>
        <mxCell id="AJ3HKmLrgSViQPSU0R3i-115" value="与本地&lt;br&gt;数据比对" style="rhombus;whiteSpace=wrap;html=1;shadow=0;fontSize=14;align=center;" vertex="1" parent="1">
          <mxGeometry x="636" y="530" width="80" height="80" as="geometry" />
        </mxCell>
        <mxCell id="AJ3HKmLrgSViQPSU0R3i-119" value="StopAdvice&lt;br&gt;Reader" style="rounded=1;whiteSpace=wrap;html=1;shadow=1;" vertex="1" parent="1">
          <mxGeometry x="808" y="450" width="84" height="40" as="geometry" />
        </mxCell>
        <mxCell id="AJ3HKmLrgSViQPSU0R3i-121" value="更新数据库" style="rounded=1;whiteSpace=wrap;html=1;shadow=1;" vertex="1" parent="1">
          <mxGeometry x="808" y="630" width="84" height="40" as="geometry" />
        </mxCell>
        <mxCell id="AJ3HKmLrgSViQPSU0R3i-129" style="edgeStyle=orthogonalEdgeStyle;rounded=0;orthogonalLoop=1;jettySize=auto;html=1;exitX=0.5;exitY=1;exitDx=0;exitDy=0;entryX=0.5;entryY=0;entryDx=0;entryDy=0;fontSize=14;" edge="1" parent="1" source="AJ3HKmLrgSViQPSU0R3i-127" target="AJ3HKmLrgSViQPSU0R3i-128">
          <mxGeometry relative="1" as="geometry" />
        </mxCell>
        <mxCell id="AJ3HKmLrgSViQPSU0R3i-127" value="区分是否为文字医嘱，写入executing_type字段" style="rounded=1;whiteSpace=wrap;html=1;shadow=0;fontSize=14;align=left;" vertex="1" parent="1">
          <mxGeometry x="282" y="640" width="170" height="50" as="geometry" />
        </mxCell>
        <mxCell id="AJ3HKmLrgSViQPSU0R3i-131" style="edgeStyle=orthogonalEdgeStyle;rounded=0;orthogonalLoop=1;jettySize=auto;html=1;exitX=0.5;exitY=1;exitDx=0;exitDy=0;entryX=0.5;entryY=0;entryDx=0;entryDy=0;fontSize=14;" edge="1" parent="1" source="AJ3HKmLrgSViQPSU0R3i-128" target="AJ3HKmLrgSViQPSU0R3i-130">
          <mxGeometry relative="1" as="geometry" />
        </mxCell>
        <mxCell id="AJ3HKmLrgSViQPSU0R3i-128" value="根据源数据区分医嘱类型，治疗/评定/出院" style="rounded=1;whiteSpace=wrap;html=1;shadow=0;fontSize=14;align=left;" vertex="1" parent="1">
          <mxGeometry x="282" y="710" width="170" height="50" as="geometry" />
        </mxCell>
        <mxCell id="AJ3HKmLrgSViQPSU0R3i-133" style="edgeStyle=orthogonalEdgeStyle;rounded=0;orthogonalLoop=1;jettySize=auto;html=1;exitX=0.5;exitY=1;exitDx=0;exitDy=0;entryX=0.5;entryY=0;entryDx=0;entryDy=0;fontSize=14;" edge="1" parent="1" source="AJ3HKmLrgSViQPSU0R3i-130" target="AJ3HKmLrgSViQPSU0R3i-132">
          <mxGeometry relative="1" as="geometry" />
        </mxCell>
        <mxCell id="AJ3HKmLrgSViQPSU0R3i-130" value="将医嘱写入数据库" style="rounded=1;whiteSpace=wrap;html=1;shadow=0;fontSize=14;align=center;" vertex="1" parent="1">
          <mxGeometry x="280" y="787" width="178" height="40" as="geometry" />
        </mxCell>
        <mxCell id="AJ3HKmLrgSViQPSU0R3i-132" value="遍历新增医嘱，进行医嘱的&lt;br&gt;二次处理" style="rounded=1;whiteSpace=wrap;html=1;shadow=0;fontSize=14;align=center;" vertex="1" parent="1">
          <mxGeometry x="280" y="860" width="178" height="40" as="geometry" />
        </mxCell>
      </root>
    </mxGraphModel>
  </diagram>
</mxfile>
